<svg enable-background="new 0 0 512 512" viewBox="0 0 512 512" xmlns="http://www.w3.org/2000/svg"><g id="_x32_5_Wood"><g><path d="m497.715 80.033v242.194c0 28.717-23.279 51.996-51.996 51.996h-242.194c-28.717 0-51.996-23.279-51.996-51.996v-242.194c0-28.717 23.279-51.996 51.996-51.996h242.194c28.716 0 51.996 23.279 51.996 51.996z" fill="#b8daff"/><path d="m429.096 134.899v242.194c0 28.717-23.279 51.996-51.996 51.996h-242.194c-28.717 0-51.996-23.279-51.996-51.996v-242.194c0-28.717 23.279-51.996 51.996-51.996h242.194c28.716 0 51.996 23.279 51.996 51.996z" fill="#fefdfe"/><path d="m360.477 189.765v242.194c0 28.717-23.279 51.996-51.996 51.996h-242.194c-28.717 0-51.996-23.279-51.996-51.996v-242.194c0-28.717 23.279-51.996 51.996-51.996h242.194c28.717 0 51.996 23.279 51.996 51.996z" fill="#b8daff"/><g fill="#3f8cf4"><path d="m445.721 20.242h-242.199c-31.308 0-57.02 24.193-59.538 54.862h-9.075c-31.308 0-57.026 24.2-59.546 54.869h-9.075c-32.97 0-59.796 26.818-59.796 59.788v242.199c0 32.97 26.826 59.788 59.796 59.788 161.628.019-69.904.003 242.191 0 31.308 0 57.026-24.193 59.546-54.862h9.075c31.308 0 57.026-24.2 59.546-54.869h9.075c32.97 0 59.788-26.818 59.788-59.788v-242.199c0-32.97-26.818-59.788-59.788-59.788zm-197.518 455.912h-27.794l-.007-63.321c0-28.341-19.561-46.433-33.024-46.433s-33.024 18.092-33.024 46.433l.007 63.321h-27.799v-87.162c0-48.07 27.282-87.177 60.824-87.177 33.534 0 60.816 39.108 60.816 87.177v87.162zm-78.253-63.321c0-20.917 13.98-30.838 17.429-30.838s17.429 9.922 17.429 30.838l.007 63.321h-34.859zm182.73 19.127c0 24.366-19.828 44.194-44.202 44.194h-44.681v-87.162c0-56.666-34.28-102.772-76.411-102.772-42.138 0-76.418 46.105-76.418 102.772v87.162h-44.681c-24.374 0-44.202-19.828-44.202-44.194v-242.199c0-24.366 19.828-44.194 44.202-44.194h242.191c24.374 0 44.202 19.828 44.202 44.194zm68.621-54.869c0 24.374-19.828 44.202-44.202 44.202h-8.825v-231.532c0-32.97-26.826-59.788-59.796-59.788h-217.48c2.46-22.061 21.203-39.275 43.91-39.275h242.192c24.374 0 44.202 19.828 44.202 44.202v242.191zm68.614-54.862c0 24.366-19.828 44.194-44.194 44.194h-8.825v-231.523c0-32.97-26.826-59.796-59.796-59.796h-217.48c2.461-22.054 21.203-39.267 43.902-39.267h242.199c24.366 0 44.194 19.828 44.194 44.194z"/><path d="m148.043 165.273c-4.256.655-7.173 4.637-6.518 8.894 4.173 27.1-6.617 56.362-27.496 74.553-3.244 2.833-3.586 7.751-.754 11.003 2.812 3.23 7.742 3.595 11.003.754 25.188-21.952 37.699-55.935 32.658-88.685-.654-4.257-4.629-7.143-8.893-6.519z"/><path d="m73.46 278.462c-28.356 30.732-28.493 75.763-28.623 115.488-.03 9.602-.053 18.671-.464 27.282-.206 4.295 3.122 7.949 7.424 8.155.122.008.244.008.373.008 4.135 0 7.584-3.251 7.782-7.432.426-8.955.449-18.183.48-27.96.122-38.689.251-78.695 24.496-104.972 2.916-3.16 2.718-8.094-.449-11.018-3.161-2.909-8.095-2.727-11.019.449z"/><path d="m215.522 163.842c-2.353-3.586-7.203-4.584-10.797-2.223-3.594 2.368-4.591 7.203-2.223 10.797 15.518 23.574 25.28 43.532 30.709 62.796 1.18 4.157 5.494 6.546 9.625 5.391 4.142-1.173 6.556-5.482 5.391-9.625-5.887-20.856-16.273-42.184-32.705-67.136z"/><path d="m303.049 185.079c.023-4.302-3.449-7.812-7.759-7.835-.008 0-.023 0-.038 0-4.287 0-7.774 3.465-7.797 7.759-.621 120.208 20.19 153.82 20.841 196.421.198 12.884-1.835 31.234-12.663 45.481-2.604 3.434-1.942 8.323 1.485 10.927 3.486 2.642 8.366 1.891 10.927-1.485 13.523-17.802 16.082-39.823 15.846-55.166-.62-40.285-21.429-84.81-20.842-196.102z"/></g></g></g><g id="Layer_1"/></svg>