<svg id="flat_gradient" viewBox="0 0 64 64" xmlns="http://www.w3.org/2000/svg" xmlns:xlink="http://www.w3.org/1999/xlink"><linearGradient id="linear-gradient" gradientUnits="userSpaceOnUse" x1="3.504" x2="60.496" y1="32.015" y2="32.015"><stop offset="0" stop-color="#5c73b9"/><stop offset="1" stop-color="#b330e1"/></linearGradient><path d="m60.26999 44.78975c-3.67383 2.5896-8.36181 1.60103-11.17998-1.42987-1.72221 4.02879-5.74839 4.01688-9.35002 2.34014-.08334-.67314-.91187-6.35659-1.02997-7.17006l1.50995-1.62c.38-.39996.36005-1.02997-.03998-1.40997-.40997-.38-1.03998-.35999-1.41998.04999l-.87.92999s-1.28003-2.46997-1.28001-2.46993c-.61767-1.16258-2.36852-.24477-1.76998.91994 0 0 1.84998 3.58002 1.84997 3.58001.13215.90394.75728 5.26436.87 6.06996-2.77002-1.59998-5.16998-3.64996-6.16998-4.54999-.48004.90002-.98004 1.71002-1.48999 2.42004l-3.17004-5.44v-2.97003s1.63-1.27002 1.62996-1.26998c1.03546-.81181-.1806-2.37857-1.22993-1.57999l-2.01001 1.57001c-.23999.19-.39001.47998-.39001.78998 0 0 0 3.72998-.00011 3.73004-.03454.54957 3.61281 6.33277 3.83013 6.83997-3.51001 3.87-7 4.03998-7.19 4.03998-.15752.00537-.31509-.0645-.41998-.19-2.27002-2.96997-3.01001-7.98999-3.23999-10.28998-6.55005 7.17999-13.48004 6.28998-13.77998 6.24999-.44886-.05061-.57626-.65497-.22002-.90001 2.90997-2.07001 5.19-5.08997 6.94003-8.22997.84958-.22767 5.74579-1.55231 6.66996-1.81.17999-.04999.33002-.14001.46002-.27002 0 0 2.09998-2.19 2.09994-2.18996.90306-.94492-.52003-2.33149-1.43997-1.39l-1.90997 1.98999-4.63 1.26001c1.44995-3.03003 2.42999-5.97003 3.02994-8.07974 5.79813 5.91938 27.93147 5.76714 34.15006.45969.52997 3.74005 1.64996 6.90002 2.98996 9.50001-.75629-.13676-3.35447-.56431-4.12998-.69996l-1.69-3.16003c-.27002-.48999-.87-.66998-1.35999-.40997-.48999.26996-.67004.87-.41003 1.35999l1.92999 3.59003c.15002.26996.41003.45996.70994.50995.90176.14488 5.45173.92505 6.23006 1.06 3.18005 5.04004 6.85004 7.39001 6.91003 7.43005.31955.17739.30651.65621.00998.83974zm-44.55998-23.50974c.25266-7.21113 32.79114-7.21658 33.05-.00004 0 3.54004-8.52002 5.45001-16.52002 5.45001-8.01001 0-16.52997-1.90997-16.52998-5.44997zm11.96998-2.60002c-.54999.06-.95001.54999-.89001 1.09998s.55005.94 1.11005.89001c1.31-.15002 2.81-.21997 4.33997-.21997 4.81 0 7.65002.69995 8.27001 1.11994.30481 1.08178 1.96514.84091 1.95002-.28998-.37659-3.42963-11.54428-2.90638-14.78003-2.59998zm-5.66998 2.59998c0 2.56 7.14996 2.83002 10.23003 2.83009 1.06032-.12412 3.02159.45813 3.08002-1.09016-.21132-1.50361-2.0125-.76532-3.08007-.90991-4.82001 0-7.65997-.70001-8.27997-1.12-.12-.41003-.5-.71002-.95001-.71002-.56 0-1 .45001-1 1z" fill="url(#linear-gradient)"/></svg>